Sprint_07200001_forces_filt15Hz.mot
version=1
nRows=28
nColumns=19
inDegrees=yes
endheader
time	R_ground_force_vx	R_ground_force_vy	R_ground_force_vz	R_ground_force_px	R_ground_force_py	R_ground_force_pz	R_ground_torque_x	R_ground_torque_y	R_ground_torque_z	L_ground_force_vx	L_ground_force_vy	L_ground_force_vz	L_ground_force_px	L_ground_force_py	L_ground_force_pz	L_ground_torque_x	L_ground_torque_y	L_ground_torque_z	
1.589500	  0.000000	  0.000000	  0.000000	  0.137100	  0.000000	 -0.213617	  0.000000	  0.000000	  0.000000	  0.000000	  0.000000	  0.000000	  1.188521	  0.000000	 -0.381087	  0.000000	  0.000000	  0.000000
1.590000	  0.000000	  0.000000	  0.000000	  0.136045	  0.000000	 -0.213471	  0.000000	  0.000000	  0.000000	  0.000000	  0.000000	  0.000000	  1.190364	  0.000000	 -0.380853	  0.000000	  0.000000	  0.000000
1.590500	  0.000000	  0.000000	  0.000000	  0.135233	  0.000000	 -0.213351	  0.000000	  0.000000	  0.000000	  0.000000	  0.000000	  0.000000	  1.191770	  0.000000	 -0.380594	  0.000000	  0.000000	  0.000000
1.591000	  0.000000	  0.000000	  0.000000	  0.134422	  0.000000	 -0.213231	  0.000000	  0.000000	  0.000000	  0.000000	  0.000000	  0.000000	  1.193176	  0.000000	 -0.380335	  0.000000	  0.000000	  0.000000
1.591500	  0.000000	  0.000000	  0.000000	  0.133610	  0.000000	 -0.213110	  0.000000	  0.000000	  0.000000	  0.000000	  0.000000	  0.000000	  1.194582	  0.000000	 -0.380076	  0.000000	  0.000000	  0.000000
1.592000	  0.000000	  0.000000	  0.000000	  0.132799	  0.000000	 -0.212990	  0.000000	  0.000000	  0.000000	  0.000000	  0.000000	  0.000000	  1.195988	  0.000000	 -0.379817	  0.000000	  0.000000	  0.000000
1.592500	  0.000000	  0.000000	  0.000000	  0.131987	  0.000000	 -0.212870	  0.000000	  0.000000	  0.000000	  0.000000	  0.000000	  0.000000	  1.197394	  0.000000	 -0.379557	  0.000000	  0.000000	  0.000000
1.593000	  0.000000	  0.000000	  0.000000	  0.131176	  0.000000	 -0.212750	  0.000000	  0.000000	  0.000000	  0.000000	  0.000000	  0.000000	  1.198800	  0.000000	 -0.379298	  0.000000	  0.000000	  0.000000
1.593500	  0.000000	  0.000000	  0.000000	  0.130364	  0.000000	 -0.212630	  0.000000	  0.000000	  0.000000	  0.000000	  0.000000	  0.000000	  1.200206	  0.000000	 -0.379039	  0.000000	  0.000000	  0.000000
1.594000	  0.000000	  0.000000	  0.000000	  0.129553	  0.000000	 -0.212510	  0.000000	  0.000000	  0.000000	  0.000000	  0.000000	  0.000000	  1.201612	  0.000000	 -0.378780	  0.000000	  0.000000	  0.000000
1.594500	  0.000000	  0.000000	  0.000000	  0.128741	  0.000000	 -0.212390	  0.000000	  0.000000	  0.000000	  0.000000	  0.000000	  0.000000	  1.203018	  0.000000	 -0.378521	  0.000000	  0.000000	  0.000000
1.595000	  0.000000	  0.000000	  0.000000	  0.127929	  0.000000	 -0.212270	  0.000000	  0.000000	  0.000000	  0.000000	  0.000000	  0.000000	  1.204424	  0.000000	 -0.378262	  0.000000	  0.000000	  0.000000
1.595500	  0.000000	  0.000000	  0.000000	  0.127342	  0.000000	 -0.212437	  0.000000	  0.000000	  0.000000	  0.000000	  0.000000	  0.000000	  1.205402	  0.000000	 -0.377938	  0.000000	  0.000000	  0.000000
1.596000	  0.000000	  0.000000	  0.000000	  0.126754	  0.000000	 -0.212603	  0.000000	  0.000000	  0.000000	  0.000000	  0.000000	  0.000000	  1.206380	  0.000000	 -0.377613	  0.000000	  0.000000	  0.000000
1.596500	  0.000000	  0.000000	  0.000000	  0.126166	  0.000000	 -0.212769	  0.000000	  0.000000	  0.000000	  0.000000	  0.000000	  0.000000	  1.207358	  0.000000	 -0.377289	  0.000000	  0.000000	  0.000000
1.597000	  0.000000	  0.000000	  0.000000	  0.125578	  0.000000	 -0.212935	  0.000000	  0.000000	  0.000000	  0.000000	  0.000000	  0.000000	  1.208336	  0.000000	 -0.376965	  0.000000	  0.000000	  0.000000
1.597500	  0.000000	  0.000000	  0.000000	  0.124991	  0.000000	 -0.213102	  0.000000	  0.000000	  0.000000	  0.000000	  0.000000	  0.000000	  1.209314	  0.000000	 -0.376641	  0.000000	  0.000000	  0.000000
1.598000	  0.000000	  0.000000	  0.000000	  0.124403	  0.000000	 -0.213268	  0.000000	  0.000000	  0.000000	  0.000000	  0.000000	  0.000000	  1.210292	  0.000000	 -0.376317	  0.000000	  0.000000	  0.000000
1.598500	  0.000000	  0.000000	  0.000000	  0.123815	  0.000000	 -0.213434	  0.000000	  0.000000	  0.000000	  0.000000	  0.000000	  0.000000	  1.211270	  0.000000	 -0.375993	  0.000000	  0.000000	  0.000000
1.599000	  0.000000	  0.000000	  0.000000	  0.123227	  0.000000	 -0.213601	  0.000000	  0.000000	  0.000000	  0.000000	  0.000000	  0.000000	  1.212248	  0.000000	 -0.375669	  0.000000	  0.000000	  0.000000
1.599500	  0.000000	  0.000000	  0.000000	  0.122639	  0.000000	 -0.213767	  0.000000	  0.000000	  0.000000	  0.000000	  0.000000	  0.000000	  1.213226	  0.000000	 -0.375345	  0.000000	  0.000000	  0.000000
1.600000	  0.000000	  0.000000	  0.000000	  0.122052	  0.000000	 -0.213933	  0.000000	  0.000000	  0.000000	  0.000000	  0.000000	  0.000000	  1.214204	  0.000000	 -0.375021	  0.000000	  0.000000	  0.000000
1.600500	  0.000000	  0.000000	  0.000000	  0.121757	  0.000000	 -0.213987	  0.000000	  0.000000	  0.000000	  0.000000	  0.000000	  0.000000	  1.214763	  0.000000	 -0.374628	  0.000000	  0.000000	  0.000000
1.601000	  0.000000	  0.000000	  0.000000	  0.121463	  0.000000	 -0.214040	  0.000000	  0.000000	  0.000000	  0.000000	  0.000000	  0.000000	  1.215323	  0.000000	 -0.374236	  0.000000	  0.000000	  0.000000
1.601500	  0.000000	  0.000000	  0.000000	  0.121169	  0.000000	 -0.214094	  0.000000	  0.000000	  0.000000	  0.000000	  0.000000	  0.000000	  1.215882	  0.000000	 -0.373844	  0.000000	  0.000000	  0.000000
1.602000	  0.000000	  0.000000	  0.000000	  0.120875	  0.000000	 -0.214148	  0.000000	  0.000000	  0.000000	  0.000000	  0.000000	  0.000000	  1.216441	  0.000000	 -0.373451	  0.000000	  0.000000	  0.000000
1.602500	  0.000000	  0.000000	  0.000000	  0.120581	  0.000000	 -0.214201	  0.000000	  0.000000	  0.000000	  0.000000	  0.000000	  0.000000	  1.217000	  0.000000	 -0.373059	  0.000000	  0.000000	  0.000000
1.603000	  0.000000	  0.000000	  0.000000	  0.120287	  0.000000	 -0.214255	  0.000000	  0.000000	  0.000000	  0.000000	  0.000000	  0.000000	  1.217559	  0.000000	 -0.372667	  0.000000	  0.000000	  0.000000
